<?xml version="1.0" encoding="UTF-8" standalone="no"?>
<!-- Uploaded to: SVG Repo, www.svgrepo.com, Generator: SVG Repo Mixer Tools -->
<svg width="800px" height="800px" viewBox="-4.5 0 65 65" version="1.1" xmlns="http://www.w3.org/2000/svg" xmlns:xlink="http://www.w3.org/1999/xlink" xmlns:sketch="http://www.bohemiancoding.com/sketch/ns">
    
    <title>Shirt-tie</title>
    <desc>Created with Sketch.</desc>
    <defs>
</defs>
    <g id="Page-1" stroke="none" stroke-width="1" fill="none" fill-rule="evenodd" sketch:type="MSPage">
        <g id="Shirt-tie" sketch:type="MSLayerGroup" transform="translate(1.000000, 1.000000)" stroke="#6B6C6E" stroke-width="2">
            <path d="M42,8.1 L50,8.1 C52.2,8.1 54,9.9 54,12.1 L54,58.1 C54,60.3 52.2,62.1 50,62.1 L4,62.1 C1.8,62.1 0,60.3 0,58.1 L0,12.1 C0,9.9 1.8,8.1 4,8.1 L12,8.1" id="Shape" sketch:type="MSShapeGroup">
</path>
            <path d="M23,18.1 L15,44.2 L20,46" id="Shape" sketch:type="MSShapeGroup">
</path>
            <path d="M23.8,13.8 C22.9,13.8 22.2,13.1 22.2,12.3 L21.4,8.5 C21.4,7.7 22.1,7 23,7 L31,7 C31.9,7 32.6,7.7 32.6,8.5 L31.8,12.3 C31.8,13.1 31.1,13.8 30.2,13.8" id="Shape" sketch:type="MSShapeGroup">
</path>
            <path d="M29.4,16.8 C30.3,16.8 31,17.5 31,18.3 L35,54 C35,54.8 27,59.6 27,59.6 C27,59.6 19,54.9 19,54 L23,18.3 C23,17.5 23.7,16.8 24.6,16.8" id="Shape" sketch:type="MSShapeGroup">
</path>
            <path d="M25.6,18.1 C24.5,18.1 24.1,17.5 24.1,16.8 L24.1,14.3 C24.1,13.6 24.5,13 25.6,13 L28.5,13 C29.6,13 30,13.6 30,14.3 L30,16.8 C30,17.5 29.6,18.1 28.5,18.1 L25.6,18.1 L25.6,18.1 Z" id="Shape" sketch:type="MSShapeGroup">
</path>
            <path d="M37,1.1 L33,7.1 L39,15.1 C40.3,15.1 42,6.9 42,6.9 C42,6.9 38.7,1.1 37.4,1.1 C37.4,1.1 33,0.1 27,0.1 C21,0.1 16.6,1.1 16.6,1.1 C15.3,1.1 12,6.9 12,6.9 C12,6.9 13.7,15.1 15,15.1 L22,7.1 L17,1.1" id="Shape" sketch:type="MSShapeGroup">
</path>
        </g>
    </g>
</svg>